<svg id="station" xmlns="http://www.w3.org/2000/svg" x="0px" y="0px" width="50" height="50" viewBox="0 0 226 226" style=" fill:#000000;">
	<g transform="">
		<g fill="none" fill-rule="nonzero" stroke="none" stroke-width="1" stroke-linecap="butt" stroke-linejoin="miter" stroke-miterlimit="10" stroke-dasharray="" stroke-dashoffset="0" font-family="none" font-weight="none" font-size="none" text-anchor="none" style="mix-blend-mode: normal">
			<path d="M0,226v-226h226v226z" fill="none">
			</path>
			<g id="original-icon" fill="#F7E5E4">
				<path d="M226,52.15385v173.84615h-60.84615l-12.15564,-18.26742c12.15564,-2.58053 20.84795,-13.03846 20.84795,-25.19411v-104.30769c0,-14.77013 -11.30679,-26.07692 -26.07692,-26.07692h-69.53846c-14.77013,0 -26.07692,11.30679 -26.07692,26.07692v104.30769c0,12.15565 8.69231,22.61359 20.84796,25.19411l-12.15565,18.26742h-60.84615v-173.84615l113,-52.15385zM143.42308,164.27104c-7.80949,0 -13.92127,6.11178 -13.92127,13.92127c0,7.8095 6.11178,13.92128 13.92127,13.92128c7.8095,0 13.92128,-6.11178 13.92128,-13.92128c0,-7.80949 -6.11178,-13.92127 -13.92128,-13.92127zM69.53846,95.61538v26.07692c0,5.22897 3.46335,8.69231 8.69231,8.69231h69.53846c5.22897,0 8.69231,-3.46334 8.69231,-8.69231v-26.07692c0,-5.22896 -3.46334,-8.69231 -8.69231,-8.69231h-69.53846c-5.22896,0 -8.69231,3.46335 -8.69231,8.69231zM130.38462,78.23077c5.22897,0 8.69231,-3.46334 8.69231,-8.69231c0,-5.22896 -3.46334,-8.69231 -8.69231,-8.69231h-34.76923c-5.22896,0 -8.69231,3.46335 -8.69231,8.69231c0,5.22897 3.46335,8.69231 8.69231,8.69231zM89.53756,208.61538l-11.30679,17.38462h69.53846l-11.30679,-17.38462zM82.57692,192.11359c7.8095,0 13.92128,-6.11178 13.92128,-13.92128c0,-7.80949 -6.11178,-13.92127 -13.92128,-13.92127c-7.80949,0 -13.92127,6.11178 -13.92127,13.92127c0,7.8095 6.11178,13.92128 13.92127,13.92128z">
				</path>
			</g>
			<path d="" fill="none">
			</path>
			<path d="" fill="none">
			</path>
			<path d="" fill="none">
			</path>
			<path d="" fill="none">
			</path>
		</g>
	</g>
</svg>
