<svg xmlns="http://www.w3.org/2000/svg" x="0px" y="0px"
width="24" height="24"
viewBox="0 0 172 172"
style=" fill:#000000;"><g fill="none" fill-rule="nonzero" stroke="none" stroke-width="1" stroke-linecap="butt" stroke-linejoin="miter" stroke-miterlimit="10" stroke-dasharray="" stroke-dashoffset="0" font-family="none" font-weight="none" font-size="none" text-anchor="none" style="mix-blend-mode: normal"><path d="M0,172v-172h172v172z" fill="none"></path><g fill="#9b59b6"><path d="M86,14.33333c-0.07957,0.00042 -0.15839,0.0134 -0.23795,0.014c-26.54044,0.06883 -53.0707,9.44095 -74.27018,28.16276c-1.77583,1.56997 -2.93246,3.53578 -3.59733,5.64095c-0.54668,1.12707 -0.77072,2.26998 -0.62988,3.37337c-0.1531,3.62197 1.14981,7.32266 3.90527,10.07813l8.10449,8.11849c4.78733,4.78734 12.34738,5.21398 17.65072,1.03581l13.18555,-10.47005c0.89551,-0.71238 1.65229,-1.53295 2.32357,-2.42155c0.06717,-0.03548 0.15802,-0.09127 0.22396,-0.12598c2.13567,-1.12517 3.44302,-3.33776 3.45736,-5.75293l0.06999,-19.72233c9.7204,-3.0593 19.78883,-4.62606 29.87044,-4.61914c10.04155,-0.00689 20.07971,1.54216 29.75847,4.57715l0.06999,19.76432c0.00717,2.41517 1.32169,4.62776 3.45736,5.75293c0.11394,0.06012 0.27433,0.14755 0.39192,0.20996c0.65809,0.85686 1.39727,1.64873 2.26758,2.33757l13.18554,10.47005c5.30333,4.17817 12.86339,3.75153 17.65072,-1.03581l8.11849,-8.11849c3.37808,-3.37808 4.57994,-8.1702 3.56934,-12.49967c-0.05802,-0.20587 -0.11326,-0.3976 -0.19596,-0.60189c-0.63871,-2.23759 -1.83361,-4.33472 -3.70932,-5.99089c-21.27783,-18.791 -47.91846,-28.17676 -74.56413,-28.17676c-0.01866,-0.00011 -0.03732,0.0001 -0.05599,0zM64.5,57.33333v14.33333l-30.44434,24.35547c-3.40417,2.71616 -5.389,6.84058 -5.389,11.19792v28.94661h-7.16667v14.33333h129v-14.33333h-7.16667v-28.94661c0,-4.35734 -1.98483,-8.47459 -5.389,-11.19792l-30.44434,-24.35547v-14.33333h-14.33333v14.33333h-14.33333v-14.33333zM64.5,93.16667c3.956,0 7.16667,3.21067 7.16667,7.16667c0,3.956 -3.21067,7.16667 -7.16667,7.16667c-3.956,0 -7.16667,-3.21067 -7.16667,-7.16667c0,-3.956 3.21067,-7.16667 7.16667,-7.16667zM86,93.16667c3.956,0 7.16667,3.21067 7.16667,7.16667c0,3.956 -3.21067,7.16667 -7.16667,7.16667c-3.956,0 -7.16667,-3.21067 -7.16667,-7.16667c0,-3.956 3.21067,-7.16667 7.16667,-7.16667zM107.5,93.16667c3.956,0 7.16667,3.21067 7.16667,7.16667c0,3.956 -3.21067,7.16667 -7.16667,7.16667c-3.956,0 -7.16667,-3.21067 -7.16667,-7.16667c0,-3.956 3.21067,-7.16667 7.16667,-7.16667zM64.5,114.66667c3.956,0 7.16667,3.21067 7.16667,7.16667c0,3.956 -3.21067,7.16667 -7.16667,7.16667c-3.956,0 -7.16667,-3.21067 -7.16667,-7.16667c0,-3.956 3.21067,-7.16667 7.16667,-7.16667zM86,114.66667c3.956,0 7.16667,3.21067 7.16667,7.16667c0,3.956 -3.21067,7.16667 -7.16667,7.16667c-3.956,0 -7.16667,-3.21067 -7.16667,-7.16667c0,-3.956 3.21067,-7.16667 7.16667,-7.16667zM107.5,114.66667c3.956,0 7.16667,3.21067 7.16667,7.16667c0,3.956 -3.21067,7.16667 -7.16667,7.16667c-3.956,0 -7.16667,-3.21067 -7.16667,-7.16667c0,-3.956 3.21067,-7.16667 7.16667,-7.16667z"></path></g></g></svg>